<?xml version="1.0" encoding="utf-8"?>
<!-- Generator: Adobe Illustrator 16.0.3, SVG Export Plug-In . SVG Version: 6.00 Build 0)  -->
<!DOCTYPE svg PUBLIC "-//W3C//DTD SVG 1.1//EN" "http://www.w3.org/Graphics/SVG/1.1/DTD/svg11.dtd">
<svg version="1.1" id="Warstwa_1" xmlns="http://www.w3.org/2000/svg" xmlns:xlink="http://www.w3.org/1999/xlink" x="0px" y="0px"
	 width="50px" height="50.002px" viewBox="0 0 50 50.002" enable-background="new 0 0 50 50.002" xml:space="preserve">
<path fill="#030405" d="M649.771,36.18l-6.776-6.833c-0.164-0.165-0.393-0.249-0.623-0.227l-6.481,0.594
	c-0.182,0.017-0.352,0.097-0.481,0.228l-0.626,0.631l-7.245-7.306l7.417-7.479l1.215,1.225c0.152,0.155,0.353,0.232,0.552,0.232
	s0.4-0.077,0.552-0.232l5.008-5.05c0.066-0.066,0.12-0.145,0.159-0.231l2.946-6.536c0.135-0.299,0.072-0.65-0.159-0.883
	l-2.356-2.377c-0.23-0.231-0.579-0.295-0.876-0.159l-6.481,2.971c-0.085,0.039-0.163,0.094-0.229,0.159l-5.008,5.051
	c-0.305,0.308-0.305,0.807,0,1.114l1.215,1.227l-7.417,7.479l-4.392-4.43l0.626-0.63c0.129-0.131,0.209-0.302,0.226-0.486
	l0.589-6.535c0.021-0.233-0.062-0.464-0.226-0.629l-6.776-6.833c-0.305-0.308-0.799-0.308-1.104,0l-2.946,2.971
	c-0.305,0.308-0.305,0.806,0,1.114l5.045,5.087l-5.376,5.421l-5.045-5.087c-0.305-0.308-0.8-0.308-1.104,0l-2.946,2.971
	c-0.305,0.307-0.305,0.807,0,1.114l6.776,6.833c0.147,0.148,0.346,0.23,0.552,0.23c0.023,0,0.047-0.001,0.071-0.003l6.481-0.595
	c0.182-0.017,0.352-0.097,0.481-0.228l0.626-0.631l4.392,4.429l-3.041,3.067L616.064,26c-0.226-0.228-0.566-0.293-0.86-0.167
	l-4.11,1.776c0,0-0.001,0-0.001,0l-0.013,0.005c-0.006,0.003-0.012,0.006-0.018,0.009c-0.016,0.008-0.032,0.015-0.047,0.023
	c-0.01,0.005-0.019,0.011-0.029,0.017c-0.012,0.007-0.024,0.016-0.036,0.024c-0.012,0.008-0.024,0.017-0.036,0.026
	c-0.008,0.007-0.017,0.013-0.025,0.02c-0.014,0.012-0.028,0.024-0.041,0.037c-0.004,0.005-0.009,0.008-0.013,0.012l-0.009,0.01
	c0,0-0.001,0.001-0.002,0.003l-9.108,9.184c0,0,0,0,0,0l-0.013,0.013c-0.004,0.005-0.009,0.01-0.014,0.015
	c-0.011,0.013-0.023,0.025-0.034,0.038c-0.008,0.01-0.016,0.021-0.023,0.03c-0.007,0.011-0.015,0.021-0.022,0.031
	c-0.01,0.014-0.018,0.029-0.027,0.044c-0.003,0.005-0.007,0.011-0.011,0.017l-0.009,0.016c0,0,0,0,0,0l-1.464,2.657
	c-0.169,0.308-0.116,0.691,0.13,0.94l6.481,6.535c0.15,0.152,0.351,0.23,0.553,0.23c0.129,0,0.26-0.032,0.379-0.099l2.651-1.485
	c0.006-0.004,0.012-0.008,0.019-0.011c0.014-0.008,0.028-0.018,0.041-0.026c0.011-0.008,0.021-0.016,0.032-0.024
	c0.009-0.007,0.02-0.014,0.029-0.022c0.013-0.01,0.025-0.022,0.038-0.034c0.004-0.005,0.01-0.009,0.015-0.014l0.013-0.013
	c0,0,0,0,0,0l9.12-9.196c0.01-0.011,0.019-0.021,0.028-0.032c0.006-0.007,0.013-0.015,0.019-0.021
	c0.002-0.002,0.004-0.004,0.006-0.007c0.019-0.024,0.037-0.049,0.053-0.075c0.003-0.005,0.006-0.011,0.01-0.017
	c0.017-0.029,0.032-0.058,0.045-0.087c0.001-0.003,0.002-0.005,0.004-0.007l0.005-0.012c0-0.001,0.001-0.002,0.001-0.003
	l1.761-4.145c0.126-0.296,0.061-0.639-0.166-0.867l-0.92-0.929l3.041-3.067l7.245,7.305l-0.626,0.631
	c-0.129,0.131-0.209,0.303-0.226,0.485l-0.589,6.537c-0.021,0.233,0.062,0.463,0.226,0.627l6.776,6.834
	c0.152,0.153,0.353,0.23,0.552,0.23c0.2,0,0.4-0.077,0.553-0.23l2.946-2.971c0.305-0.308,0.305-0.807,0-1.115l-5.045-5.086
	l5.376-5.422l5.045,5.087c0.305,0.308,0.799,0.308,1.104,0l2.946-2.971C650.076,36.986,650.076,36.487,649.771,36.18z
	 M636.292,6.122l5.859-2.686l1.591,1.604l-2.663,5.909l-4.356,4.392l-1.215-1.225l-2.356-2.377l-1.215-1.225L636.292,6.122z
	 M632.599,13.411l1.252,1.262l-7.417,7.479l-1.252-1.262L632.599,13.411z M615.082,17.761l-0.978,0.987l-5.835,0.535l-5.964-6.015
	l1.841-1.857l5.045,5.088c0.305,0.307,0.799,0.307,1.104,0l6.481-6.536c0.305-0.308,0.305-0.806,0-1.114l-5.045-5.087l1.841-1.856
	l5.965,6.015l-0.53,5.884l-0.979,0.987L615.082,17.761z M611.388,29.453l0.663,0.669l-8.028,8.095l-0.663-0.668L611.388,29.453z
	 M606.085,40.296l-0.958-0.965l8.028-8.096l0.957,0.966L606.085,40.296z M615.217,33.315l0.958,0.966l-8.028,8.095l-0.958-0.966
	L615.217,33.315z M607.399,45.781l-5.648-5.696l0.684-1.241l3.098,3.124l3.097,3.123L607.399,45.781z M609.915,44.158l-0.663-0.668
	l8.028-8.096l0.663,0.669L609.915,44.158z M618.784,34.684l-0.952-0.959l-2.057-2.075c-0.002-0.001-0.003-0.004-0.005-0.005
	c-0.002-0.001-0.004-0.003-0.005-0.005l-2.057-2.074l-0.952-0.96l2.578-1.114l1.099,1.108l2.356,2.377l1.099,1.108L618.784,34.684z
	 M619.342,29.304l-1.252-1.262l3.041-3.066l1.252,1.262L619.342,29.304z M624.041,25.681l-2.357-2.376l-4.945-4.987l1.841-1.857
	l4.944,4.987l2.357,2.376h0l7.796,7.863l-1.841,1.857L624.041,25.681z M646.272,38.594l-5.045-5.087c-0.305-0.308-0.8-0.308-1.104,0
	l-6.481,6.536c-0.305,0.308-0.305,0.807,0,1.114l5.045,5.087l-1.841,1.856l-5.964-6.014l0.53-5.884l0.979-0.987l2.946-2.971l0,0
	l0.978-0.987l5.835-0.535l5.964,6.016L646.272,38.594z"/>
<path fill="#030405" d="M313.427,41.116h-4.685c-0.441,0-0.799,0.359-0.799,0.803v4.282c0,0.444,0.357,0.803,0.799,0.803h4.685
	c0.441,0,0.799-0.359,0.799-0.803v-4.282C314.226,41.475,313.868,41.116,313.427,41.116z M312.628,45.399h-3.088v-2.678h3.088
	V45.399z"/>
<path fill="#030405" d="M322.371,41.116h-4.685c-0.441,0-0.798,0.359-0.798,0.803v4.282c0,0.444,0.357,0.803,0.798,0.803h4.685
	c0.441,0,0.798-0.359,0.798-0.803v-4.282C323.169,41.475,322.812,41.116,322.371,41.116z M321.572,45.399h-3.087v-2.678h3.087
	V45.399z"/>
<path fill="#030405" d="M340.258,2.571h-4.685c-0.441,0-0.799,0.36-0.799,0.804v4.282c0,0.443,0.357,0.803,0.799,0.803h4.685
	c0.441,0,0.798-0.36,0.798-0.803V3.375C341.056,2.931,340.699,2.571,340.258,2.571z M339.459,6.855h-3.087V4.178h3.087V6.855z"/>
<path fill="#030405" d="M331.314,41.116h-4.685c-0.441,0-0.799,0.359-0.799,0.803v4.282c0,0.444,0.357,0.803,0.799,0.803h4.685
	c0.441,0,0.799-0.359,0.799-0.803v-4.282C332.113,41.475,331.755,41.116,331.314,41.116z M330.516,45.399h-3.088v-2.678h3.088
	V45.399z"/>
<path fill="#030405" d="M313.427,2.571h-4.685c-0.441,0-0.799,0.36-0.799,0.804v4.282c0,0.443,0.357,0.803,0.799,0.803h4.685
	c0.441,0,0.799-0.36,0.799-0.803V3.375C314.226,2.931,313.868,2.571,313.427,2.571z M312.628,6.855h-3.088V4.178h3.088V6.855z"/>
<path fill="#030405" d="M331.314,2.571h-4.685c-0.441,0-0.799,0.36-0.799,0.804v4.282c0,0.443,0.357,0.803,0.799,0.803h4.685
	c0.441,0,0.799-0.36,0.799-0.803V3.375C332.113,2.931,331.755,2.571,331.314,2.571z M330.516,6.855h-3.088V4.178h3.088V6.855z"/>
<path fill="#030405" d="M322.371,2.571h-4.685c-0.441,0-0.798,0.36-0.798,0.804v4.282c0,0.443,0.357,0.803,0.798,0.803h4.685
	c0.441,0,0.798-0.36,0.798-0.803V3.375C323.169,2.931,322.812,2.571,322.371,2.571z M321.572,6.855h-3.087V4.178h3.087V6.855z"/>
<path fill="#030405" d="M349.201,4.178c0.441,0,0.799-0.36,0.799-0.803v-2.57c0-0.442-0.357-0.802-0.799-0.802h-49.403
	c-0.441,0-0.798,0.36-0.798,0.802v2.57c0,0.443,0.357,0.803,0.798,0.803h3.886v2.676h-3.886C299.357,6.855,299,7.214,299,7.657
	v3.426v27.837v2.998c0,0.443,0.357,0.802,0.798,0.802h3.886v2.678h-3.886c-0.441,0-0.798,0.359-0.798,0.802v2.998
	c0,0.443,0.357,0.803,0.798,0.803h49.403c0.441,0,0.799-0.36,0.799-0.803v-2.998c0-0.443-0.357-0.802-0.799-0.802h-3.886v-2.678
	h3.886c0.441,0,0.799-0.359,0.799-0.802v-2.998V11.083V7.657c0-0.443-0.357-0.803-0.799-0.803h-3.886V4.178H349.201z
	 M348.403,41.116h-3.886c-0.441,0-0.799,0.359-0.799,0.803v4.282c0,0.444,0.357,0.803,0.799,0.803h3.886v1.393h-47.806v-1.393h3.886
	c0.441,0,0.798-0.359,0.798-0.803v-4.282c0-0.444-0.357-0.803-0.798-0.803h-3.886v-1.392h47.806V41.116L348.403,41.116z
	 M348.403,38.118h-47.806V11.887h47.806V38.118L348.403,38.118z M344.517,8.46h3.886v1.82h-47.806V8.46h3.886
	c0.441,0,0.798-0.36,0.798-0.803V3.375c0-0.444-0.357-0.804-0.798-0.804h-3.886V1.608h47.806v0.963h-3.886
	c-0.441,0-0.799,0.36-0.799,0.804v4.282C343.718,8.101,344.076,8.46,344.517,8.46z"/>
<path fill="#030405" d="M340.258,41.116h-4.685c-0.441,0-0.799,0.359-0.799,0.803v4.282c0,0.444,0.357,0.803,0.799,0.803h4.685
	c0.441,0,0.798-0.359,0.798-0.803v-4.282C341.056,41.475,340.699,41.116,340.258,41.116z M339.459,45.399h-3.087v-2.678h3.087
	V45.399z"/>
<path fill="#030405" d="M324.5,13.493c-6.312,0-11.446,5.163-11.446,11.51c0,6.346,5.134,11.51,11.446,11.51
	c6.311,0,11.445-5.164,11.445-11.51C335.945,18.655,330.811,13.493,324.5,13.493z M324.5,34.905c-5.431,0-9.849-4.442-9.849-9.903
	c0-5.461,4.418-9.904,9.849-9.904s9.849,4.443,9.849,9.904C334.349,30.463,329.931,34.905,324.5,34.905z"/>
<path fill="#030405" d="M332.482,22.165c-0.726-2.065-2.265-3.811-4.22-4.789c-0.395-0.198-0.874-0.036-1.07,0.361
	s-0.035,0.879,0.36,1.077c1.587,0.793,2.836,2.209,3.425,3.886c0.116,0.33,0.424,0.536,0.753,0.536c0.088,0,0.178-0.015,0.266-0.046
	C332.411,23.042,332.629,22.583,332.482,22.165z"/>
<path fill="#030405" d="M328.822,24.276l-6.479-5.048c-0.241-0.188-0.567-0.221-0.84-0.086c-0.274,0.134-0.447,0.414-0.447,0.72
	v10.278c0,0.309,0.176,0.59,0.453,0.725c0.11,0.052,0.228,0.078,0.345,0.078c0.179,0,0.355-0.06,0.5-0.176l6.479-5.231
	c0.191-0.153,0.301-0.388,0.299-0.633C329.129,24.658,329.015,24.427,328.822,24.276z M322.652,28.467V21.5l0,0l4.391,3.421
	L322.652,28.467z"/>
<path fill="#030405" d="M49.204,12.829h-15.88l-1.168-7.295c-0.061-0.382-0.395-0.663-0.786-0.663H18.631
	c-0.392,0-0.726,0.281-0.786,0.663l-1.168,7.295h-4.043V9.425c0-0.434-0.357-0.786-0.796-0.786H5.892
	c-0.44,0-0.796,0.352-0.796,0.786v3.403H0.796C0.356,12.828,0,13.18,0,13.613v8.797v26.807c0,0.433,0.356,0.786,0.796,0.786h48.408
	c0.44,0,0.796-0.353,0.796-0.786V22.41v-8.795C50,13.18,49.644,12.829,49.204,12.829z M19.311,6.44h11.378l1.023,6.388H18.288
	L19.311,6.44z M6.688,10.211h4.352v2.618H6.688V10.211z M48.408,48.431H1.592V23.195h13.467c-2.032,2.331-3.17,5.313-3.17,8.429
	c0,2.092,0.511,4.141,1.485,5.981c-1.159,0.646-1.909,1.867-1.909,3.234c0,2.05,1.69,3.717,3.768,3.717
	c1.309,0,2.512-0.684,3.191-1.743c1.993,1.143,4.247,1.743,6.576,1.743c7.229,0,13.11-5.802,13.11-12.932
	c0-3.117-1.138-6.099-3.17-8.429h13.467L48.408,48.431L48.408,48.431z M15.195,37.588c-0.001-0.001-0.002-0.003-0.003-0.004
	c0,0,0-0.001-0.001-0.001c-1.118-1.788-1.709-3.848-1.709-5.958c0-3.315,1.463-6.456,4.014-8.619c0,0,0,0,0,0
	c2.085-1.768,4.75-2.743,7.503-2.743c2.753,0,5.417,0.975,7.503,2.743c0,0,0,0,0,0c2.551,2.164,4.014,5.305,4.014,8.619
	c0,6.264-5.167,11.361-11.518,11.361c-2.321,0.001-4.558-0.677-6.469-1.96c0,0,0,0-0.001-0.001c-0.002,0-0.003-0.002-0.005-0.003
	C17.193,40.127,16.042,38.94,15.195,37.588z M17.098,41.943c-0.387,0.632-1.094,1.042-1.865,1.042c-1.2,0-2.176-0.962-2.176-2.146
	c0-0.804,0.449-1.521,1.139-1.888C14.993,40.089,15.981,41.108,17.098,41.943z M48.408,21.624H33.313
	c-2.339-1.893-5.279-2.931-8.313-2.931c-3.034,0-5.974,1.039-8.313,2.931H1.592v-7.225h4.299h5.945h5.52H32.64
	c0.001,0,0.001,0,0.002,0c0,0,0.001,0,0.001,0h15.764V21.624L48.408,21.624z"/>
<path fill="#030405" d="M25,22.881c-4.888,0-8.864,3.923-8.864,8.743c0,4.821,3.976,8.744,8.864,8.744
	c4.887,0,8.864-3.923,8.864-8.744C33.864,26.804,29.888,22.881,25,22.881z M25,38.798c-4.01,0-7.272-3.218-7.272-7.173
	c0-3.956,3.262-7.173,7.272-7.173c4.01,0,7.272,3.218,7.272,7.173S29.01,38.798,25,38.798z"/>
<path fill="#030405" d="M29.059,34.412c-0.316-0.302-0.82-0.295-1.126,0.017c-0.778,0.792-1.82,1.227-2.933,1.227
	c-0.44,0-0.796,0.352-0.796,0.786c0,0.434,0.356,0.785,0.796,0.785c1.548,0,2.996-0.606,4.076-1.705
	C29.382,35.21,29.375,34.714,29.059,34.412z"/>
<path fill="#030405" d="M25,26.021c-0.44,0-0.796,0.353-0.796,0.786c0,0.434,0.356,0.786,0.796,0.786
	c2.254,0,4.087,1.808,4.087,4.031c0,0.357-0.047,0.711-0.141,1.051c-0.115,0.419,0.136,0.851,0.561,0.963
	c0.07,0.019,0.14,0.028,0.208,0.028c0.351,0,0.672-0.23,0.768-0.581c0.13-0.475,0.196-0.966,0.196-1.462
	C30.679,28.536,28.132,26.021,25,26.021z"/>
<path fill="#030405" d="M44.533,25.394c-0.44,0-0.796,0.352-0.796,0.786v18.848c0,0.434,0.356,0.786,0.796,0.786
	c0.44,0,0.796-0.352,0.796-0.786V26.18C45.329,25.746,44.973,25.394,44.533,25.394z"/>
<path fill="#030405" d="M44.533,15.341c-0.44,0-0.796,0.352-0.796,0.786v3.352c0,0.433,0.356,0.784,0.796,0.784
	c0.44,0,0.796-0.352,0.796-0.784v-3.352C45.329,15.693,44.973,15.341,44.533,15.341z"/>
<path fill="#030405" d="M38.991,4.739h-3.303c-0.439,0-0.796,0.352-0.796,0.786c0,0.434,0.357,0.785,0.796,0.785h3.303
	c0.44,0,0.796-0.352,0.796-0.785C39.788,5.09,39.431,4.739,38.991,4.739z"/>
<path fill="#030405" d="M37.431,9.708l-2.102-2.073c-0.311-0.307-0.815-0.307-1.126,0c-0.311,0.307-0.311,0.804,0,1.111l2.102,2.073
	c0.156,0.153,0.359,0.23,0.563,0.23c0.204,0,0.407-0.077,0.563-0.23C37.742,10.512,37.742,10.014,37.431,9.708z"/>
<path fill="#030405" d="M37.452,0.229c-0.311-0.306-0.815-0.306-1.126,0l-2.102,2.073c-0.311,0.307-0.311,0.804,0,1.111
	c0.156,0.153,0.359,0.23,0.563,0.23c0.204,0,0.407-0.077,0.563-0.23l2.102-2.073C37.763,1.034,37.763,0.537,37.452,0.229z"/>
</svg>
