<?xml version="1.0" encoding="utf-8"?>
<!-- Generator: Adobe Illustrator 16.0.3, SVG Export Plug-In . SVG Version: 6.00 Build 0)  -->
<!DOCTYPE svg PUBLIC "-//W3C//DTD SVG 1.1//EN" "http://www.w3.org/Graphics/SVG/1.1/DTD/svg11.dtd">
<svg version="1.1" id="Warstwa_1" xmlns="http://www.w3.org/2000/svg" xmlns:xlink="http://www.w3.org/1999/xlink" x="0px" y="0px"
	 width="51px" height="50px" viewBox="0 0 51 50" enable-background="new 0 0 51 50" xml:space="preserve">
<path fill="#030405" d="M342.719,30.498C347.292,27.288,350,22.292,350,17c0-9.374-8.333-17-18.576-17
	c-6.03,0-11.659,2.669-15.146,7.158h-15.475c-0.443,0-0.803,0.353-0.803,0.79V41.21c0,0.436,0.359,0.79,0.803,0.79h6.049v7.211
	c0,0.317,0.193,0.604,0.491,0.728C307.444,49.98,307.55,50,307.655,50c0.206,0,0.408-0.077,0.561-0.224L316.333,42h14.449
	c0.443,0,0.803-0.354,0.803-0.79v-7.212c1.508-0.012,3.008-0.188,4.461-0.53l8.158,3.008c0.092,0.034,0.188,0.051,0.282,0.051
	c0.224,0,0.442-0.092,0.597-0.262c0.221-0.241,0.269-0.59,0.121-0.881L342.719,30.498z M329.979,40.421h-13.972
	c-0.209,0-0.411,0.081-0.561,0.224l-6.988,6.694v-6.128c0-0.437-0.359-0.79-0.803-0.79h-6.049V8.737h13.582
	c-0.973,1.604-1.662,3.356-2.027,5.158h-6.362c-0.444,0-0.803,0.353-0.803,0.789v2.526c0,0.436,0.359,0.79,0.803,0.79h6.082
	c0.093,1.476,0.393,2.922,0.895,4.316h-6.977c-0.444,0-0.803,0.354-0.803,0.79v2.526c0,0.436,0.359,0.789,0.803,0.789h9.164
	c1.222,1.677,2.751,3.137,4.516,4.316h-13.68c-0.444,0-0.803,0.354-0.803,0.789v2.526c0,0.436,0.359,0.79,0.803,0.79h17.987
	c0.444,0,0.803-0.354,0.803-0.79v-0.909c1.419,0.43,2.89,0.7,4.39,0.805V40.421L329.979,40.421z M312.926,15.474
	c-0.031,0.316-0.055,0.632-0.066,0.948h-5.258v-0.948H312.926z M314.442,23.895c0.155,0.32,0.321,0.636,0.499,0.947h-7.339v-0.947
	H314.442z M323.357,32.316c0.207,0.091,0.415,0.179,0.625,0.263v0.684h-16.381v-0.948H323.357z M336.378,31.905
	c-0.153-0.056-0.32-0.066-0.479-0.026c-1.454,0.36-2.959,0.543-4.476,0.543c-0.185,0-0.38-0.003-0.616-0.011l0,0
	c-1.983-0.064-3.915-0.438-5.741-1.109c-0.404-0.148-0.808-0.314-1.201-0.492c-2.797-1.267-5.156-3.21-6.821-5.619c0,0,0,0,0-0.001
	c0,0-0.001,0-0.001-0.001h0c-0.523-0.758-0.976-1.562-1.347-2.39v0c-0.001-0.003-0.003-0.006-0.004-0.009c0,0,0,0,0,0
	c-0.792-1.776-1.208-3.656-1.234-5.589l0,0l0,0l-0.001-0.072c-0.001-0.042-0.001-0.085-0.001-0.127c0-0.729,0.058-1.468,0.172-2.195
	v0c0.362-2.306,1.271-4.457,2.702-6.393c3.164-4.278,8.433-6.833,14.096-6.833c9.357,0,16.97,6.918,16.97,15.422
	c0,4.981-2.672,9.683-7.147,12.575c-0.34,0.22-0.459,0.655-0.277,1.013l1.884,3.704L336.378,31.905z"/>
<path fill="#030405" d="M345.239,10.945c-0.208-0.385-0.695-0.531-1.086-0.325c-0.392,0.205-0.54,0.684-0.332,1.068
	c0.903,1.665,1.36,3.453,1.36,5.313c0,0.436,0.359,0.79,0.803,0.79c0.443,0,0.803-0.353,0.803-0.79
	C346.788,14.879,346.267,12.841,345.239,10.945z"/>
<path fill="#030405" d="M342.469,7.386c-2.925-2.726-6.847-4.227-11.045-4.227c-0.443,0-0.803,0.353-0.803,0.789
	c0,0.436,0.359,0.79,0.803,0.79c3.785,0,7.315,1.347,9.94,3.794c0.155,0.145,0.354,0.217,0.552,0.217
	c0.213,0,0.425-0.083,0.583-0.247C342.804,8.186,342.791,7.686,342.469,7.386z"/>
<path fill="#030405" d="M330.567,15.158c-1.742,0-3.158,1.393-3.158,3.105c0,1.712,1.417,3.105,3.158,3.105s3.159-1.393,3.159-3.105
	C333.726,16.551,332.309,15.158,330.567,15.158z M330.567,19.79c-0.856,0-1.552-0.685-1.552-1.526s0.696-1.526,1.552-1.526
	s1.553,0.685,1.553,1.526S331.423,19.79,330.567,19.79z"/>
<path fill="#030405" d="M339.133,15.158c-1.742,0-3.159,1.393-3.159,3.105c0,1.712,1.417,3.105,3.159,3.105s3.158-1.393,3.158-3.105
	C342.291,16.551,340.875,15.158,339.133,15.158z M339.133,19.79c-0.856,0-1.553-0.685-1.553-1.526s0.697-1.526,1.553-1.526
	s1.552,0.685,1.552,1.526C340.686,19.105,339.989,19.79,339.133,19.79z"/>
<path fill="#030405" d="M322.002,15.158c-1.741,0-3.158,1.393-3.158,3.105c0,1.712,1.417,3.105,3.158,3.105
	c1.742,0,3.159-1.393,3.159-3.105C325.161,16.551,323.744,15.158,322.002,15.158z M322.002,19.79c-0.856,0-1.552-0.685-1.552-1.526
	s0.696-1.526,1.552-1.526s1.553,0.685,1.553,1.526S322.858,19.79,322.002,19.79z"/>
<path fill="#030405" d="M50.201,0H0.798C0.357,0,0,0.356,0,0.796v10.191v38.217C0,49.644,0.357,50,0.798,50h49.403
	C50.643,50,51,49.644,51,49.204V10.987V0.796C51,0.356,50.643,0,50.201,0z M49.403,48.408H1.597V11.784h47.806V48.408L49.403,48.408
	z M49.403,10.191H1.597V1.593h47.806V10.191L49.403,10.191z"/>
<path fill="#030405" d="M42.535,3.397h-9.369c-0.441,0-0.799,0.356-0.799,0.796c0,0.439,0.357,0.796,0.799,0.796h9.369
	c0.441,0,0.799-0.357,0.799-0.796C43.334,3.754,42.977,3.397,42.535,3.397z"/>
<path fill="#030405" d="M46.794,3.397h-1.703c-0.441,0-0.799,0.356-0.799,0.796c0,0.439,0.357,0.796,0.799,0.796h1.703
	c0.441,0,0.799-0.357,0.799-0.796C47.593,3.754,47.235,3.397,46.794,3.397z"/>
<path fill="#030405" d="M26.352,2.548c-1.849,0-3.354,1.5-3.354,3.344c0,1.844,1.504,3.344,3.354,3.344s3.354-1.5,3.354-3.344
	C29.706,4.048,28.201,2.548,26.352,2.548z M26.352,7.644c-0.969,0-1.757-0.786-1.757-1.752s0.788-1.751,1.757-1.751
	s1.757,0.786,1.757,1.751S27.32,7.644,26.352,7.644z"/>
<path fill="#030405" d="M16.982,2.548c-1.85,0-3.354,1.5-3.354,3.344c0,1.844,1.504,3.344,3.354,3.344
	c1.849,0,3.354-1.5,3.354-3.344C20.336,4.048,18.832,2.548,16.982,2.548z M16.982,7.644c-0.969,0-1.757-0.786-1.757-1.752
	s0.788-1.751,1.757-1.751c0.968,0,1.756,0.786,1.756,1.751S17.951,7.644,16.982,7.644z"/>
<path fill="#030405" d="M7.613,2.548c-1.85,0-3.354,1.5-3.354,3.344c0,1.844,1.505,3.344,3.354,3.344s3.354-1.5,3.354-3.344
	C10.966,4.048,9.462,2.548,7.613,2.548z M7.613,7.644c-0.969,0-1.757-0.786-1.757-1.752S6.644,4.14,7.613,4.14
	S9.37,4.926,9.37,5.892S8.582,7.644,7.613,7.644z"/>
<path fill="#030405" d="M16.822,22.623c0.017-0.638-0.215-1.244-0.656-1.708c-0.44-0.463-1.035-0.727-1.674-0.745
	c-0.638-0.017-1.248,0.215-1.712,0.653l-8.092,7.644c-0.485,0.458-0.757,1.102-0.748,1.768c0.01,0.666,0.301,1.302,0.798,1.746
	l8.092,7.219c0.44,0.392,1.007,0.608,1.597,0.608l0,0c0.681,0,1.332-0.29,1.786-0.796c0.881-0.981,0.796-2.494-0.188-3.372
	l-6.153-5.489l6.203-5.859C16.539,23.854,16.804,23.261,16.822,22.623z M14.976,23.136L8.144,29.59
	c-0.162,0.153-0.252,0.367-0.25,0.589c0.003,0.223,0.1,0.434,0.266,0.582l6.799,6.065c0.328,0.293,0.356,0.797,0.063,1.125
	c-0.153,0.171-0.365,0.265-0.596,0.265c-0.196,0-0.385-0.072-0.532-0.203l-8.092-7.219c-0.166-0.148-0.263-0.361-0.267-0.582
	c-0.003-0.222,0.088-0.437,0.25-0.589l8.092-7.644c0.149-0.141,0.344-0.218,0.549-0.218c0.007,0,0.015,0,0.022,0.001
	c0.213,0.005,0.412,0.094,0.558,0.248c0.147,0.155,0.224,0.357,0.219,0.569C15.219,22.792,15.131,22.99,14.976,23.136z"/>
<path fill="#030405" d="M46.313,28.468l-8.092-7.643c-0.959-0.906-2.478-0.865-3.387,0.091c-0.909,0.956-0.868,2.471,0.091,3.377
	l6.203,5.859l-6.153,5.489c-0.984,0.878-1.069,2.391-0.188,3.373c0.454,0.506,1.105,0.796,1.786,0.796c0,0,0,0,0,0
	c0.59,0,1.157-0.216,1.597-0.608l8.092-7.219c0.498-0.444,0.789-1.08,0.798-1.746S46.797,28.925,46.313,28.468z M45.197,30.795
	l-8.092,7.219c-0.147,0.131-0.335,0.203-0.532,0.203l0,0c-0.23,0-0.442-0.094-0.595-0.265c-0.294-0.327-0.266-0.832,0.063-1.124
	l6.799-6.066c0.167-0.148,0.263-0.359,0.266-0.582c0.003-0.223-0.087-0.436-0.249-0.59l-6.833-6.454
	c-0.319-0.302-0.333-0.807-0.03-1.125c0.157-0.165,0.368-0.248,0.58-0.248c0.197,0,0.395,0.072,0.549,0.218l8.092,7.644
	c0.162,0.152,0.252,0.367,0.249,0.589l0,0l0,0C45.46,30.435,45.363,30.647,45.197,30.795z"/>
<path fill="#030405" d="M31.646,22.787c-0.167-0.616-0.563-1.131-1.118-1.449l0,0c-1.145-0.657-2.612-0.263-3.271,0.879
	l-8.092,14.012c-0.659,1.141-0.264,2.604,0.881,3.262c0.363,0.209,0.776,0.319,1.193,0.319c0.855,0,1.651-0.459,2.078-1.197
	L31.409,24.6C31.728,24.046,31.813,23.403,31.646,22.787z M30.025,23.805l-8.092,14.012c-0.142,0.247-0.408,0.4-0.694,0.4
	c-0.14,0-0.273-0.036-0.396-0.107c-0.382-0.219-0.514-0.707-0.294-1.087l8.092-14.013c0.147-0.256,0.417-0.398,0.693-0.398
	c0.135,0,0.272,0.034,0.397,0.106c0.185,0.106,0.317,0.277,0.373,0.482C30.159,23.406,30.131,23.621,30.025,23.805z"/>
</svg>
