<?xml version="1.0" encoding="utf-8"?>
<!-- Generator: Adobe Illustrator 16.0.3, SVG Export Plug-In . SVG Version: 6.00 Build 0)  -->
<!DOCTYPE svg PUBLIC "-//W3C//DTD SVG 1.1//EN" "http://www.w3.org/Graphics/SVG/1.1/DTD/svg11.dtd">
<svg version="1.1" id="Warstwa_1" xmlns="http://www.w3.org/2000/svg" xmlns:xlink="http://www.w3.org/1999/xlink" x="0px" y="0px"
	 width="29.999px" height="46px" viewBox="0 0 29.999 46" enable-background="new 0 0 29.999 46" xml:space="preserve">
<path fill="#0ec17c" d="M16.499,0h-3.521C5.701,0,0,5.942,0,13.529V32.47C0,40.057,5.701,46,12.978,46h3.521
	c7.444,0,13.5-6.069,13.5-13.53V13.529C29.999,6.068,23.943,0,16.499,0z M14.863,7.09h0.272c0.426,0,0.772,0.347,0.772,0.774v5.51
	c0,0.427-0.347,0.773-0.772,0.773h-0.272c-0.426,0-0.772-0.347-0.772-0.773v-5.51C14.09,7.438,14.437,7.09,14.863,7.09z
	 M28.233,32.47c0,6.485-5.264,11.761-11.735,11.761h-3.521c-6.288,0-11.212-5.166-11.212-11.761V13.529
	c0-6.595,4.925-11.761,11.212-11.761h1.128v3.668c-1.031,0.324-1.781,1.289-1.781,2.428v5.51c0,1.138,0.75,2.104,1.781,2.427v4.551
	c0,0.489,0.395,0.885,0.883,0.885c0.487,0,0.882-0.396,0.882-0.885v-4.544c1.042-0.317,1.803-1.289,1.803-2.434v-5.51
	c0-1.146-0.761-2.118-1.803-2.434V1.768h0.628c6.471,0,11.735,5.276,11.735,11.761V32.47L28.233,32.47z"/>
</svg>
