<?xml version="1.0" encoding="utf-8"?>
<!-- Generator: Adobe Illustrator 16.0.3, SVG Export Plug-In . SVG Version: 6.00 Build 0)  -->
<!DOCTYPE svg PUBLIC "-//W3C//DTD SVG 1.1//EN" "http://www.w3.org/Graphics/SVG/1.1/DTD/svg11.dtd">
<svg version="1.1" id="Warstwa_1" xmlns="http://www.w3.org/2000/svg" xmlns:xlink="http://www.w3.org/1999/xlink" x="0px" y="0px"
	 width="50px" height="50px" viewBox="0 0 50 50" enable-background="new 0 0 50 50" xml:space="preserve">
<path fill="#0ec17c" d="M42.719,30.498C47.292,27.288,50,22.292,50,17c0-9.374-8.333-17-18.576-17
	c-6.03,0-11.659,2.669-15.146,7.158H0.803C0.359,7.158,0,7.511,0,7.948V41.21C0,41.647,0.359,42,0.803,42h6.049v7.211
	c0,0.317,0.193,0.604,0.491,0.728C7.444,49.98,7.55,50,7.655,50c0.206,0,0.408-0.077,0.561-0.224L16.333,42h14.449
	c0.443,0,0.803-0.354,0.803-0.79v-7.212c1.508-0.012,3.008-0.188,4.461-0.53l8.158,3.008c0.092,0.034,0.188,0.051,0.282,0.051
	c0.224,0,0.442-0.092,0.597-0.262c0.221-0.241,0.269-0.59,0.121-0.881L42.719,30.498z M29.979,40.421H16.006
	c-0.209,0-0.411,0.081-0.561,0.224l-6.988,6.694v-6.128c0-0.437-0.359-0.79-0.803-0.79H1.606V8.737h13.582
	c-0.973,1.604-1.662,3.356-2.027,5.158H6.799c-0.444,0-0.803,0.353-0.803,0.789v2.526c0,0.436,0.359,0.79,0.803,0.79h6.082
	c0.093,1.476,0.393,2.922,0.895,4.316H6.799c-0.444,0-0.803,0.354-0.803,0.79v2.526c0,0.436,0.359,0.789,0.803,0.789h9.164
	c1.222,1.677,2.751,3.137,4.516,4.316H6.799c-0.444,0-0.803,0.354-0.803,0.789v2.526c0,0.436,0.359,0.79,0.803,0.79h17.987
	c0.444,0,0.803-0.354,0.803-0.79v-0.909c1.419,0.43,2.89,0.7,4.39,0.805V40.421L29.979,40.421z M12.926,15.474
	c-0.031,0.316-0.055,0.632-0.066,0.948H7.602v-0.948H12.926z M14.442,23.895c0.155,0.32,0.321,0.636,0.499,0.947H7.602v-0.947
	H14.442z M23.357,32.316c0.207,0.091,0.415,0.179,0.625,0.263v0.684H7.602v-0.948H23.357z M36.378,31.905
	c-0.153-0.056-0.32-0.066-0.479-0.026c-1.454,0.36-2.959,0.543-4.476,0.543c-0.185,0-0.38-0.003-0.616-0.011l0,0
	c-1.983-0.064-3.915-0.438-5.741-1.109c-0.404-0.148-0.808-0.314-1.201-0.492c-2.797-1.267-5.156-3.21-6.821-5.619c0,0,0,0,0-0.001
	c0,0-0.001,0-0.001-0.001h0c-0.523-0.758-0.976-1.562-1.347-2.39v0c-0.001-0.003-0.003-0.006-0.004-0.009c0,0,0,0,0,0
	c-0.792-1.776-1.208-3.656-1.234-5.589l0,0l0,0l-0.001-0.072c-0.001-0.042-0.001-0.085-0.001-0.127c0-0.729,0.058-1.468,0.172-2.195
	v0c0.362-2.306,1.271-4.457,2.702-6.393c3.164-4.278,8.433-6.833,14.096-6.833c9.357,0,16.97,6.918,16.97,15.422
	c0,4.981-2.672,9.683-7.147,12.575c-0.34,0.22-0.459,0.655-0.277,1.013l1.884,3.704L36.378,31.905z"/>
<path fill="#0ec17c" d="M45.239,10.945c-0.208-0.385-0.695-0.531-1.086-0.325c-0.392,0.205-0.54,0.684-0.332,1.068
	c0.903,1.665,1.36,3.453,1.36,5.313c0,0.436,0.359,0.79,0.803,0.79c0.443,0,0.803-0.353,0.803-0.79
	C46.788,14.879,46.267,12.841,45.239,10.945z"/>
<path fill="#0ec17c" d="M42.469,7.386c-2.925-2.726-6.847-4.227-11.045-4.227c-0.443,0-0.803,0.353-0.803,0.789
	c0,0.436,0.359,0.79,0.803,0.79c3.785,0,7.315,1.347,9.94,3.794c0.155,0.145,0.354,0.217,0.552,0.217
	c0.213,0,0.425-0.083,0.583-0.247C42.804,8.186,42.791,7.686,42.469,7.386z"/>
<path fill="#0ec17c" d="M30.567,15.158c-1.742,0-3.158,1.393-3.158,3.105c0,1.712,1.417,3.105,3.158,3.105s3.159-1.393,3.159-3.105
	C33.726,16.551,32.309,15.158,30.567,15.158z M30.567,19.79c-0.856,0-1.552-0.685-1.552-1.526s0.696-1.526,1.552-1.526
	s1.553,0.685,1.553,1.526S31.423,19.79,30.567,19.79z"/>
<path fill="#0ec17c" d="M39.133,15.158c-1.742,0-3.159,1.393-3.159,3.105c0,1.712,1.417,3.105,3.159,3.105s3.158-1.393,3.158-3.105
	C42.291,16.551,40.875,15.158,39.133,15.158z M39.133,19.79c-0.856,0-1.553-0.685-1.553-1.526s0.697-1.526,1.553-1.526
	s1.552,0.685,1.552,1.526C40.686,19.105,39.989,19.79,39.133,19.79z"/>
<path fill="#0ec17c" d="M22.002,15.158c-1.741,0-3.158,1.393-3.158,3.105c0,1.712,1.417,3.105,3.158,3.105
	c1.742,0,3.159-1.393,3.159-3.105C25.161,16.551,23.744,15.158,22.002,15.158z M22.002,19.79c-0.856,0-1.552-0.685-1.552-1.526
	s0.696-1.526,1.552-1.526s1.553,0.685,1.553,1.526S22.858,19.79,22.002,19.79z"/>
<path fill="#0ec17c" d="M-22.632,0h-49.403c-0.441,0-0.798,0.356-0.798,0.796v10.191v38.217c0,0.439,0.357,0.796,0.798,0.796h49.403
	c0.441,0,0.799-0.356,0.799-0.796V10.987V0.796C-21.833,0.356-22.191,0-22.632,0z M-23.431,48.408h-47.806V11.784h47.806V48.408
	L-23.431,48.408z M-23.431,10.191h-47.806V1.593h47.806V10.191L-23.431,10.191z"/>
<path fill="#0ec17c" d="M-30.298,3.397h-9.369c-0.441,0-0.799,0.356-0.799,0.796c0,0.439,0.357,0.796,0.799,0.796h9.369
	c0.441,0,0.799-0.357,0.799-0.796C-29.5,3.754-29.857,3.397-30.298,3.397z"/>
<path fill="#0ec17c" d="M-26.04,3.397h-1.703c-0.441,0-0.799,0.356-0.799,0.796c0,0.439,0.357,0.796,0.799,0.796h1.703
	c0.441,0,0.799-0.357,0.799-0.796C-25.241,3.754-25.598,3.397-26.04,3.397z"/>
<path fill="#0ec17c" d="M-46.482,2.548c-1.849,0-3.354,1.5-3.354,3.344c0,1.844,1.504,3.344,3.354,3.344s3.354-1.5,3.354-3.344
	C-43.128,4.048-44.632,2.548-46.482,2.548z M-46.482,7.644c-0.969,0-1.757-0.786-1.757-1.752s0.788-1.751,1.757-1.751
	s1.757,0.786,1.757,1.751S-45.513,7.644-46.482,7.644z"/>
<path fill="#0ec17c" d="M-55.851,2.548c-1.85,0-3.354,1.5-3.354,3.344c0,1.844,1.504,3.344,3.354,3.344
	c1.849,0,3.354-1.5,3.354-3.344C-52.498,4.048-54.002,2.548-55.851,2.548z M-55.851,7.644c-0.969,0-1.757-0.786-1.757-1.752
	s0.788-1.751,1.757-1.751c0.968,0,1.756,0.786,1.756,1.751S-54.883,7.644-55.851,7.644z"/>
<path fill="#0ec17c" d="M-65.221,2.548c-1.85,0-3.354,1.5-3.354,3.344c0,1.844,1.505,3.344,3.354,3.344s3.354-1.5,3.354-3.344
	C-61.867,4.048-63.372,2.548-65.221,2.548z M-65.221,7.644c-0.969,0-1.757-0.786-1.757-1.752s0.788-1.751,1.757-1.751
	s1.757,0.786,1.757,1.751S-64.252,7.644-65.221,7.644z"/>
<path fill="#0ec17c" d="M-56.012,22.623c0.017-0.638-0.215-1.244-0.656-1.708c-0.44-0.463-1.035-0.727-1.674-0.745
	c-0.638-0.017-1.248,0.215-1.712,0.653l-8.092,7.644c-0.485,0.458-0.757,1.102-0.748,1.768c0.01,0.666,0.301,1.302,0.798,1.746
	l8.092,7.219c0.44,0.392,1.007,0.608,1.597,0.608l0,0c0.681,0,1.332-0.29,1.786-0.796c0.881-0.981,0.796-2.494-0.188-3.372
	l-6.153-5.489l6.203-5.859C-56.294,23.854-56.029,23.261-56.012,22.623z M-57.857,23.136l-6.833,6.454
	c-0.162,0.153-0.252,0.367-0.25,0.589c0.003,0.223,0.1,0.434,0.266,0.582l6.799,6.065c0.328,0.293,0.356,0.797,0.063,1.125
	c-0.153,0.171-0.365,0.265-0.596,0.265c-0.196,0-0.385-0.072-0.532-0.203l-8.092-7.219c-0.166-0.148-0.263-0.361-0.267-0.582
	c-0.003-0.222,0.088-0.437,0.25-0.589l8.092-7.644c0.149-0.141,0.344-0.218,0.549-0.218c0.007,0,0.015,0,0.022,0.001
	c0.213,0.005,0.412,0.094,0.558,0.248c0.147,0.155,0.224,0.357,0.219,0.569C-57.614,22.792-57.703,22.99-57.857,23.136z"/>
<path fill="#0ec17c" d="M-26.521,28.468l-8.092-7.643c-0.959-0.906-2.478-0.865-3.387,0.091c-0.909,0.956-0.868,2.471,0.091,3.377
	l6.203,5.859l-6.153,5.489c-0.984,0.878-1.069,2.391-0.188,3.373c0.454,0.506,1.105,0.796,1.786,0.796c0,0,0,0,0,0
	c0.59,0,1.157-0.216,1.597-0.608l8.092-7.219c0.498-0.444,0.789-1.08,0.798-1.746S-26.037,28.925-26.521,28.468z M-27.636,30.795
	l-8.092,7.219c-0.147,0.131-0.335,0.203-0.532,0.203l0,0c-0.23,0-0.442-0.094-0.595-0.265c-0.294-0.327-0.266-0.832,0.063-1.124
	l6.799-6.066c0.167-0.148,0.263-0.359,0.266-0.582c0.003-0.223-0.087-0.436-0.249-0.59l-6.833-6.454
	c-0.319-0.302-0.333-0.807-0.03-1.125c0.157-0.165,0.368-0.248,0.58-0.248c0.197,0,0.395,0.072,0.549,0.218l8.092,7.644
	c0.162,0.152,0.252,0.367,0.249,0.589l0,0l0,0C-27.374,30.435-27.47,30.647-27.636,30.795z"/>
<path fill="#0ec17c" d="M-41.188,22.787c-0.167-0.616-0.563-1.131-1.118-1.449l0,0c-1.145-0.657-2.612-0.263-3.271,0.879
	l-8.092,14.012c-0.659,1.141-0.264,2.604,0.881,3.262c0.363,0.209,0.776,0.319,1.193,0.319c0.855,0,1.651-0.459,2.078-1.197
	l8.092-14.013C-41.105,24.046-41.021,23.403-41.188,22.787z M-42.809,23.805L-50.9,37.817c-0.142,0.247-0.408,0.4-0.694,0.4
	c-0.14,0-0.273-0.036-0.396-0.107c-0.382-0.219-0.514-0.707-0.294-1.087l8.092-14.013c0.147-0.256,0.417-0.398,0.693-0.398
	c0.135,0,0.272,0.034,0.397,0.106c0.185,0.106,0.317,0.277,0.373,0.482C-42.674,23.406-42.702,23.621-42.809,23.805z"/>
</svg>
