<?xml version="1.0" encoding="utf-8"?>
<!-- Generator: Adobe Illustrator 16.0.3, SVG Export Plug-In . SVG Version: 6.00 Build 0)  -->
<!DOCTYPE svg PUBLIC "-//W3C//DTD SVG 1.1//EN" "http://www.w3.org/Graphics/SVG/1.1/DTD/svg11.dtd">
<svg version="1.1" id="Warstwa_1" xmlns="http://www.w3.org/2000/svg" xmlns:xlink="http://www.w3.org/1999/xlink" x="0px" y="0px"
	 width="50px" height="50.002px" viewBox="0 0 50 50.002" enable-background="new 0 0 50 50.002" xml:space="preserve">
<path fill="#0ec17c" d="M649.771,36.18l-6.776-6.833c-0.164-0.165-0.393-0.249-0.623-0.227l-6.481,0.594
	c-0.182,0.017-0.352,0.097-0.481,0.228l-0.626,0.631l-7.245-7.306l7.417-7.479l1.215,1.225c0.152,0.155,0.353,0.232,0.552,0.232
	s0.4-0.077,0.552-0.232l5.008-5.05c0.066-0.066,0.12-0.145,0.159-0.231l2.946-6.536c0.135-0.299,0.072-0.65-0.159-0.883
	l-2.356-2.377c-0.23-0.231-0.579-0.295-0.876-0.159l-6.481,2.971c-0.085,0.039-0.163,0.094-0.229,0.159l-5.008,5.051
	c-0.305,0.308-0.305,0.807,0,1.114l1.215,1.227l-7.417,7.479l-4.392-4.43l0.626-0.63c0.129-0.131,0.209-0.302,0.226-0.486
	l0.589-6.535c0.021-0.233-0.062-0.464-0.226-0.629l-6.776-6.833c-0.305-0.308-0.799-0.308-1.104,0l-2.946,2.971
	c-0.305,0.308-0.305,0.806,0,1.114l5.045,5.087l-5.376,5.421l-5.045-5.087c-0.305-0.308-0.8-0.308-1.104,0l-2.946,2.971
	c-0.305,0.307-0.305,0.807,0,1.114l6.776,6.833c0.147,0.148,0.346,0.23,0.552,0.23c0.023,0,0.047-0.001,0.071-0.003l6.481-0.595
	c0.182-0.017,0.352-0.097,0.481-0.228l0.626-0.631l4.392,4.429l-3.041,3.067L616.064,26c-0.226-0.228-0.566-0.293-0.86-0.167
	l-4.11,1.776c0,0-0.001,0-0.001,0l-0.013,0.005c-0.006,0.003-0.012,0.006-0.018,0.009c-0.016,0.008-0.032,0.015-0.047,0.023
	c-0.01,0.005-0.019,0.011-0.029,0.017c-0.012,0.007-0.024,0.016-0.036,0.024c-0.012,0.008-0.024,0.017-0.036,0.026
	c-0.008,0.007-0.017,0.013-0.025,0.02c-0.014,0.012-0.028,0.024-0.041,0.037c-0.004,0.005-0.009,0.008-0.013,0.012l-0.009,0.01
	c0,0-0.001,0.001-0.002,0.003l-9.108,9.184c0,0,0,0,0,0l-0.013,0.013c-0.004,0.005-0.009,0.01-0.014,0.015
	c-0.011,0.013-0.023,0.025-0.034,0.038c-0.008,0.01-0.016,0.021-0.023,0.03c-0.007,0.011-0.015,0.021-0.022,0.031
	c-0.01,0.014-0.018,0.029-0.027,0.044c-0.003,0.005-0.007,0.011-0.011,0.017l-0.009,0.016c0,0,0,0,0,0l-1.464,2.657
	c-0.169,0.308-0.116,0.691,0.13,0.94l6.481,6.535c0.15,0.152,0.351,0.23,0.553,0.23c0.129,0,0.26-0.032,0.379-0.099l2.651-1.485
	c0.006-0.004,0.012-0.008,0.019-0.011c0.014-0.008,0.028-0.018,0.041-0.026c0.011-0.008,0.021-0.016,0.032-0.024
	c0.009-0.007,0.02-0.014,0.029-0.022c0.013-0.01,0.025-0.022,0.038-0.034c0.004-0.005,0.01-0.009,0.015-0.014l0.013-0.013
	c0,0,0,0,0,0l9.12-9.196c0.01-0.011,0.019-0.021,0.028-0.032c0.006-0.007,0.013-0.015,0.019-0.021
	c0.002-0.002,0.004-0.004,0.006-0.007c0.019-0.024,0.037-0.049,0.053-0.075c0.003-0.005,0.006-0.011,0.01-0.017
	c0.017-0.029,0.032-0.058,0.045-0.087c0.001-0.003,0.002-0.005,0.004-0.007l0.005-0.012c0-0.001,0.001-0.002,0.001-0.003
	l1.761-4.145c0.126-0.296,0.061-0.639-0.166-0.867l-0.92-0.929l3.041-3.067l7.245,7.305l-0.626,0.631
	c-0.129,0.131-0.209,0.303-0.226,0.485l-0.589,6.537c-0.021,0.233,0.062,0.463,0.226,0.627l6.776,6.834
	c0.152,0.153,0.353,0.23,0.552,0.23c0.2,0,0.4-0.077,0.553-0.23l2.946-2.971c0.305-0.308,0.305-0.807,0-1.115l-5.045-5.086
	l5.376-5.422l5.045,5.087c0.305,0.308,0.799,0.308,1.104,0l2.946-2.971C650.076,36.986,650.076,36.487,649.771,36.18z
	 M636.292,6.122l5.859-2.686l1.591,1.604l-2.663,5.909l-4.356,4.392l-1.215-1.225l-2.356-2.377l-1.215-1.225L636.292,6.122z
	 M632.599,13.411l1.252,1.262l-7.417,7.479l-1.252-1.262L632.599,13.411z M615.082,17.761l-0.978,0.987l-5.835,0.535l-5.964-6.015
	l1.841-1.857l5.045,5.088c0.305,0.307,0.799,0.307,1.104,0l6.481-6.536c0.305-0.308,0.305-0.806,0-1.114l-5.045-5.087l1.841-1.856
	l5.965,6.015l-0.53,5.884l-0.979,0.987L615.082,17.761z M611.388,29.453l0.663,0.669l-8.028,8.095l-0.663-0.668L611.388,29.453z
	 M606.085,40.296l-0.958-0.965l8.028-8.096l0.957,0.966L606.085,40.296z M615.217,33.315l0.958,0.966l-8.028,8.095l-0.958-0.966
	L615.217,33.315z M607.399,45.781l-5.648-5.696l0.684-1.241l3.098,3.124l3.097,3.123L607.399,45.781z M609.915,44.158l-0.663-0.668
	l8.028-8.096l0.663,0.669L609.915,44.158z M618.784,34.684l-0.952-0.959l-2.057-2.075c-0.002-0.001-0.003-0.004-0.005-0.005
	c-0.002-0.001-0.004-0.003-0.005-0.005l-2.057-2.074l-0.952-0.96l2.578-1.114l1.099,1.108l2.356,2.377l1.099,1.108L618.784,34.684z
	 M619.342,29.304l-1.252-1.262l3.041-3.066l1.252,1.262L619.342,29.304z M624.041,25.681l-2.357-2.376l-4.945-4.987l1.841-1.857
	l4.944,4.987l2.357,2.376h0l7.796,7.863l-1.841,1.857L624.041,25.681z M646.272,38.594l-5.045-5.087c-0.305-0.308-0.8-0.308-1.104,0
	l-6.481,6.536c-0.305,0.308-0.305,0.807,0,1.114l5.045,5.087l-1.841,1.856l-5.964-6.014l0.53-5.884l0.979-0.987l2.946-2.971l0,0
	l0.978-0.987l5.835-0.535l5.964,6.016L646.272,38.594z"/>
<path fill="#0ec17c" d="M14.054,41.135H9.45c-0.434,0-0.785,0.359-0.785,0.802v4.271c0,0.443,0.351,0.801,0.785,0.801h4.604
	c0.434,0,0.785-0.358,0.785-0.801v-4.271C14.839,41.494,14.488,41.135,14.054,41.135z M13.27,45.408h-3.035v-2.671h3.035V45.408z"/>
<path fill="#0ec17c" d="M22.844,41.135H18.24c-0.433,0-0.785,0.359-0.785,0.802v4.271c0,0.443,0.351,0.801,0.785,0.801h4.604
	c0.434,0,0.785-0.358,0.785-0.801v-4.271C23.629,41.494,23.278,41.135,22.844,41.135z M22.059,45.408h-3.034v-2.671h3.034V45.408z"
	/>
<path fill="#0ec17c" d="M40.425,2.685h-4.604c-0.434,0-0.785,0.359-0.785,0.802v4.271c0,0.442,0.351,0.801,0.785,0.801h4.604
	c0.433,0,0.785-0.359,0.785-0.801V3.486C41.21,3.043,40.858,2.685,40.425,2.685z M39.64,6.958h-3.034v-2.67h3.034V6.958z"/>
<path fill="#0ec17c" d="M31.635,41.135h-4.604c-0.434,0-0.785,0.359-0.785,0.802v4.271c0,0.443,0.351,0.801,0.785,0.801h4.604
	c0.433,0,0.785-0.358,0.785-0.801v-4.271C32.42,41.494,32.068,41.135,31.635,41.135z M30.85,45.408h-3.035v-2.671h3.035V45.408z"/>
<path fill="#0ec17c" d="M14.054,2.685H9.45c-0.434,0-0.785,0.359-0.785,0.802v4.271c0,0.442,0.351,0.801,0.785,0.801h4.604
	c0.434,0,0.785-0.359,0.785-0.801V3.486C14.839,3.043,14.488,2.685,14.054,2.685z M13.27,6.958h-3.035v-2.67h3.035V6.958z"/>
<path fill="#0ec17c" d="M31.635,2.685h-4.604c-0.434,0-0.785,0.359-0.785,0.802v4.271c0,0.442,0.351,0.801,0.785,0.801h4.604
	c0.433,0,0.785-0.359,0.785-0.801V3.486C32.42,3.043,32.068,2.685,31.635,2.685z M30.85,6.958h-3.035v-2.67h3.035V6.958z"/>
<path fill="#0ec17c" d="M22.844,2.685H18.24c-0.433,0-0.785,0.359-0.785,0.802v4.271c0,0.442,0.351,0.801,0.785,0.801h4.604
	c0.434,0,0.785-0.359,0.785-0.801V3.486C23.629,3.043,23.278,2.685,22.844,2.685z M22.059,6.958h-3.034v-2.67h3.034V6.958z"/>
<path fill="#0ec17c" d="M49.215,4.288C49.648,4.288,50,3.929,50,3.486V0.923c0-0.442-0.351-0.801-0.785-0.801H0.66
	c-0.433,0-0.785,0.359-0.785,0.801v2.563c0,0.442,0.351,0.801,0.785,0.801h3.819v2.669H0.66C0.226,6.958-0.125,7.316-0.125,7.758
	v3.418v27.769v2.991c0,0.442,0.351,0.8,0.785,0.8h3.819v2.671H0.66c-0.433,0-0.785,0.358-0.785,0.8v2.991
	C-0.125,49.641,0.226,50,0.66,50h48.555C49.649,50,50,49.641,50,49.199v-2.991c0-0.442-0.351-0.8-0.785-0.8h-3.819v-2.671h3.819
	c0.434,0,0.785-0.358,0.785-0.8v-2.991V11.176V7.758c0-0.442-0.351-0.801-0.785-0.801h-3.819V4.288H49.215z M48.43,41.135h-3.819
	c-0.434,0-0.785,0.359-0.785,0.802v4.271c0,0.443,0.351,0.801,0.785,0.801h3.819v1.389H1.445v-1.389h3.82
	c0.433,0,0.785-0.358,0.785-0.801v-4.271c0-0.443-0.351-0.802-0.785-0.802h-3.82v-1.389H48.43V41.135L48.43,41.135z M48.43,38.145
	H1.445V11.977H48.43V38.145L48.43,38.145z M44.611,8.559h3.819v1.816H1.445V8.559h3.82c0.433,0,0.785-0.359,0.785-0.801V3.486
	c0-0.443-0.351-0.802-0.785-0.802h-3.82v-0.96H48.43v0.96h-3.819c-0.434,0-0.785,0.359-0.785,0.802v4.271
	C43.826,8.2,44.177,8.559,44.611,8.559z"/>
<path fill="#0ec17c" d="M40.425,41.135h-4.604c-0.434,0-0.785,0.359-0.785,0.802v4.271c0,0.443,0.351,0.801,0.785,0.801h4.604
	c0.433,0,0.785-0.358,0.785-0.801v-4.271C41.21,41.494,40.858,41.135,40.425,41.135z M39.64,45.408h-3.034v-2.671h3.034V45.408z"/>
<path fill="#0ec17c" d="M24.938,13.579c-6.203,0-11.249,5.15-11.249,11.482c0,6.331,5.046,11.481,11.249,11.481
	c6.203,0,11.249-5.15,11.249-11.481C36.187,18.729,31.14,13.579,24.938,13.579z M24.938,34.939c-5.337,0-9.679-4.431-9.679-9.878
	c0-5.448,4.342-9.88,9.679-9.88s9.68,4.432,9.68,9.88C34.617,30.508,30.275,34.939,24.938,34.939z"/>
<path fill="#0ec17c" d="M32.783,22.23c-0.714-2.06-2.226-3.801-4.148-4.777c-0.388-0.197-0.859-0.036-1.052,0.36
	c-0.193,0.396-0.034,0.877,0.354,1.074c1.56,0.791,2.788,2.204,3.366,3.877c0.114,0.329,0.417,0.534,0.74,0.534
	c0.087,0,0.175-0.015,0.262-0.046C32.713,23.105,32.927,22.647,32.783,22.23z"/>
<path fill="#0ec17c" d="M29.185,24.337l-6.368-5.036c-0.236-0.187-0.557-0.22-0.826-0.085c-0.269,0.134-0.439,0.413-0.439,0.719
	v10.253c0,0.309,0.173,0.589,0.445,0.724c0.108,0.052,0.224,0.078,0.339,0.078c0.176,0,0.349-0.06,0.491-0.176l6.368-5.218
	c0.188-0.153,0.295-0.386,0.293-0.631C29.487,24.718,29.375,24.487,29.185,24.337z M23.122,28.518v-6.95l0,0l4.316,3.413
	L23.122,28.518z"/>
<path fill="#0ec17c" d="M-49.129,12.829h-15.88l-1.168-7.295c-0.061-0.382-0.395-0.663-0.786-0.663h-12.739
	c-0.392,0-0.726,0.281-0.786,0.663l-1.168,7.295H-85.7V9.425c0-0.434-0.357-0.786-0.796-0.786h-5.945
	c-0.44,0-0.796,0.352-0.796,0.786v3.403h-4.299c-0.44,0-0.796,0.352-0.796,0.786v8.797v26.807c0,0.433,0.356,0.786,0.796,0.786
	h48.408c0.44,0,0.796-0.353,0.796-0.786V22.41v-8.795C-48.333,13.18-48.69,12.829-49.129,12.829z M-79.022,6.44h11.378l1.023,6.388
	h-13.423L-79.022,6.44z M-91.645,10.211h4.352v2.618h-4.352V10.211z M-49.926,48.431h-46.815V23.195h13.467
	c-2.032,2.331-3.17,5.313-3.17,8.429c0,2.092,0.511,4.141,1.485,5.981c-1.159,0.646-1.909,1.867-1.909,3.234
	c0,2.05,1.69,3.717,3.768,3.717c1.309,0,2.512-0.684,3.191-1.743c1.993,1.143,4.247,1.743,6.576,1.743
	c7.229,0,13.11-5.802,13.11-12.932c0-3.117-1.138-6.099-3.17-8.429h13.467L-49.926,48.431L-49.926,48.431z M-83.138,37.588
	c-0.001-0.001-0.002-0.003-0.003-0.004c0,0,0-0.001-0.001-0.001c-1.118-1.788-1.709-3.848-1.709-5.958
	c0-3.315,1.463-6.456,4.014-8.619c0,0,0,0,0,0c2.085-1.768,4.75-2.743,7.503-2.743c2.753,0,5.417,0.975,7.503,2.743c0,0,0,0,0,0
	c2.551,2.164,4.014,5.305,4.014,8.619c0,6.264-5.167,11.361-11.518,11.361c-2.321,0.001-4.558-0.677-6.469-1.96c0,0,0,0-0.001-0.001
	c-0.002,0-0.003-0.002-0.005-0.003C-81.14,40.127-82.291,38.94-83.138,37.588z M-81.235,41.943
	c-0.387,0.632-1.094,1.042-1.865,1.042c-1.2,0-2.176-0.962-2.176-2.146c0-0.804,0.449-1.521,1.139-1.888
	C-83.34,40.089-82.352,41.108-81.235,41.943z M-49.926,21.624h-15.095c-2.339-1.893-5.279-2.931-8.313-2.931
	c-3.034,0-5.974,1.039-8.313,2.931h-15.095v-7.225h4.299h5.945h5.52h15.283c0.001,0,0.001,0,0.002,0c0,0,0.001,0,0.001,0h15.764
	V21.624L-49.926,21.624z"/>
<path fill="#0ec17c" d="M-73.333,22.881c-4.888,0-8.864,3.923-8.864,8.743c0,4.821,3.976,8.744,8.864,8.744
	c4.887,0,8.864-3.923,8.864-8.744C-64.469,26.804-68.446,22.881-73.333,22.881z M-73.333,38.798c-4.01,0-7.272-3.218-7.272-7.173
	c0-3.956,3.262-7.173,7.272-7.173c4.01,0,7.272,3.218,7.272,7.173S-69.323,38.798-73.333,38.798z"/>
<path fill="#0ec17c" d="M-69.274,34.412c-0.316-0.302-0.82-0.295-1.126,0.017c-0.778,0.792-1.82,1.227-2.933,1.227
	c-0.44,0-0.796,0.352-0.796,0.786c0,0.434,0.356,0.785,0.796,0.785c1.548,0,2.996-0.606,4.076-1.705
	C-68.951,35.21-68.958,34.714-69.274,34.412z"/>
<path fill="#0ec17c" d="M-73.333,26.021c-0.44,0-0.796,0.353-0.796,0.786c0,0.434,0.356,0.786,0.796,0.786
	c2.254,0,4.087,1.808,4.087,4.031c0,0.357-0.047,0.711-0.141,1.051c-0.115,0.419,0.136,0.851,0.561,0.963
	c0.07,0.019,0.14,0.028,0.208,0.028c0.351,0,0.672-0.23,0.768-0.581c0.13-0.475,0.196-0.966,0.196-1.462
	C-67.654,28.536-70.202,26.021-73.333,26.021z"/>
<path fill="#0ec17c" d="M-53.8,25.394c-0.44,0-0.796,0.352-0.796,0.786v18.848c0,0.434,0.356,0.786,0.796,0.786
	c0.44,0,0.796-0.352,0.796-0.786V26.18C-53.004,25.746-53.361,25.394-53.8,25.394z"/>
<path fill="#0ec17c" d="M-53.8,15.341c-0.44,0-0.796,0.352-0.796,0.786v3.352c0,0.433,0.356,0.784,0.796,0.784
	c0.44,0,0.796-0.352,0.796-0.784v-3.352C-53.004,15.693-53.361,15.341-53.8,15.341z"/>
<path fill="#0ec17c" d="M-59.342,4.739h-3.303c-0.439,0-0.796,0.352-0.796,0.786c0,0.434,0.357,0.785,0.796,0.785h3.303
	c0.44,0,0.796-0.352,0.796-0.785C-58.546,5.09-58.902,4.739-59.342,4.739z"/>
<path fill="#0ec17c" d="M-60.902,9.708l-2.102-2.073c-0.311-0.307-0.815-0.307-1.126,0c-0.311,0.307-0.311,0.804,0,1.111
	l2.102,2.073c0.156,0.153,0.359,0.23,0.563,0.23c0.204,0,0.407-0.077,0.563-0.23C-60.591,10.512-60.591,10.014-60.902,9.708z"/>
<path fill="#0ec17c" d="M-60.881,0.229c-0.311-0.306-0.815-0.306-1.126,0l-2.102,2.073c-0.311,0.307-0.311,0.804,0,1.111
	c0.156,0.153,0.359,0.23,0.563,0.23c0.204,0,0.407-0.077,0.563-0.23l2.102-2.073C-60.57,1.034-60.57,0.537-60.881,0.229z"/>
</svg>
